<?xml version="1.0" encoding="utf-8"?>
<!-- Generator: Adobe Illustrator 25.4.1, SVG Export Plug-In . SVG Version: 6.00 Build 0)  -->
<svg version="1.1" id="Layer_1" xmlns="http://www.w3.org/2000/svg" xmlns:xlink="http://www.w3.org/1999/xlink" x="0px" y="0px"
	 viewBox="0 0 48 48" style="enable-background:new 0 0 48 48;" xml:space="preserve">
<style type="text/css">
	.st0{fill:none;stroke:#EEEEEE;}
	.st1{fill-rule:evenodd;clip-rule:evenodd;fill:#FFFFFF;}
	.st2{fill:none;}
	.st3{fill-rule:evenodd;clip-rule:evenodd;fill:#EF7823;}
	.st4{fill-rule:evenodd;clip-rule:evenodd;fill:#ED3D07;}
</style>
<desc>Created with Sketch.</desc>
<g id="Symbols">
	<g id="credito">
		<g id="Group-60">
			<g id="icon">
				<path id="Oval" class="st0" d="M24,47.5C37,47.5,47.5,37,47.5,24S37,0.5,24,0.5S0.5,11,0.5,24S11,47.5,24,47.5z"/>
				<g id="Group" transform="translate(14.000000, 24.000000)">
					<path id="Fill-10" class="st1" d="M0,0.5C0,0.2,0.2,0,0.5,0h3C3.8,0,4,0.2,4,0.5C4,0.8,3.8,1,3.5,1h-3C0.2,1,0,0.8,0,0.5"/>
					<path id="Fill-11" class="st1" d="M5,0.5C5,0.2,5.2,0,5.5,0h3C8.8,0,9,0.2,9,0.5C9,0.8,8.8,1,8.5,1h-3C5.2,1,5,0.8,5,0.5"/>
					<path id="Fill-12" class="st1" d="M10,0.5C10,0.2,10.2,0,10.5,0h3C13.8,0,14,0.2,14,0.5C14,0.8,13.8,1,13.5,1h-3
						C10.2,1,10,0.8,10,0.5"/>
					<path id="Fill-13" class="st1" d="M16,0.5C16,0.2,16.2,0,16.5,0h3C19.8,0,20,0.2,20,0.5C20,0.8,19.8,1,19.5,1h-3
						C16.2,1,16,0.8,16,0.5"/>
				</g>
			</g>
			<g id="icono_tc" transform="translate(12.000000, 12.000000)">
				<rect id="Rectangle-51" class="st2" width="24" height="24"/>
				<g id="Group-2" transform="translate(0.000000, 4.000000)">
					<path id="Rectangle-path" class="st3" d="M1.6,0h20.8l0,0C23.3,0,24,0.7,24,1.6v12.8l0,0c0,0.9-0.7,1.6-1.6,1.6H1.6l0,0
						C0.7,16,0,15.3,0,14.4V1.6l0,0C0,0.7,0.7,0,1.6,0z"/>
					<rect id="Rectangle-path_00000060006509916574449910000004781154883851722909_" y="3" class="st4" width="24" height="3"/>
					
						<rect id="Rectangle-path_00000021119433237355397460000005894821968257253533_" x="2" y="7" class="st1" width="20" height="3"/>
					<path id="Rectangle-path_00000130627180015763907120000005213528006525376433_" class="st4" d="M2.5,13h9
						c0.3,0,0.5,0.2,0.5,0.5l0,0c0,0.3-0.2,0.5-0.5,0.5h-9C2.2,14,2,13.8,2,13.5l0,0C2,13.2,2.2,13,2.5,13z"/>
					<path id="Rectangle-path_00000073719092258519253220000012899599857187804312_" class="st4" d="M2.5,11h14
						c0.3,0,0.5,0.2,0.5,0.5l0,0c0,0.3-0.2,0.5-0.5,0.5h-14C2.2,12,2,11.8,2,11.5l0,0C2,11.2,2.2,11,2.5,11z"/>
				</g>
			</g>
		</g>
	</g>
</g>
</svg>
