<?xml version="1.0" encoding="utf-8"?>
<!-- Generator: Adobe Illustrator 25.4.1, SVG Export Plug-In . SVG Version: 6.00 Build 0)  -->
<svg version="1.1" id="Layer_1" xmlns="http://www.w3.org/2000/svg" xmlns:xlink="http://www.w3.org/1999/xlink" x="0px" y="0px"
	 viewBox="0 0 48 48" style="enable-background:new 0 0 48 48;" xml:space="preserve">
<style type="text/css">
	.st0{fill:none;stroke:#EEEEEE;}
	.st1{fill-rule:evenodd;clip-rule:evenodd;fill:#FFFFFF;}
	.st2{fill-rule:evenodd;clip-rule:evenodd;fill:#EF7823;}
	.st3{fill-rule:evenodd;clip-rule:evenodd;fill:#ED3D07;}
</style>
<g>
	<g>
		<g>
			<g>
				<g>
					<path class="st0" d="M24,0.5c6.5,0,12.4,2.6,16.6,6.9s6.9,10.1,6.9,16.6c0,6.5-2.6,12.4-6.9,16.6S30.5,47.5,24,47.5
						c-6.5,0-12.4-2.6-16.6-6.9S0.5,30.5,0.5,24c0-6.5,2.6-12.4,6.9-16.6S17.5,0.5,24,0.5z"/>
					<g>
						<path class="st1" d="M14,24.5c0-0.3,0.2-0.5,0.5-0.5h3c0.3,0,0.5,0.2,0.5,0.5c0,0.3-0.2,0.5-0.5,0.5h-3
							C14.2,25,14,24.8,14,24.5 M19,24.5c0-0.3,0.2-0.5,0.5-0.5h3c0.3,0,0.5,0.2,0.5,0.5c0,0.3-0.2,0.5-0.5,0.5h-3
							C19.2,25,19,24.8,19,24.5 M24,24.5c0-0.3,0.2-0.5,0.5-0.5h3c0.3,0,0.5,0.2,0.5,0.5c0,0.3-0.2,0.5-0.5,0.5h-3
							C24.2,25,24,24.8,24,24.5 M30,24.5c0-0.3,0.2-0.5,0.5-0.5h3c0.3,0,0.5,0.2,0.5,0.5c0,0.3-0.2,0.5-0.5,0.5h-3
							C30.2,25,30,24.8,30,24.5"/>
					</g>
				</g>
				<g transform="translate(-618 -208) translate(137 187) translate(481 21) translate(14 14)">
					<path class="st2" d="M10.8,0C8.4,0,6.4,2,6.4,4.4s2,4.4,4.4,4.4s4.4-2,4.4-4.4C15.2,2,13.2,0,10.8,0"/>
					<path class="st1" d="M10.7,6.5v0.5c0,0.1-0.1,0.1-0.2,0.1h-0.3c-0.1,0-0.1-0.1-0.1-0.1V6.5c-1-0.1-1.4-0.8-1.4-1.3
						c0-0.1,0.1-0.1,0.1-0.1h0.4c0.1,0,0.1,0.1,0.1,0.1c0,0.2,0.1,0.7,1,0.7c0.6,0,0.9-0.2,0.9-0.6c0-1-2.4-0.3-2.4-1.9
						c0-0.7,0.5-1.1,1.3-1.1V1.7c0-0.1,0.1-0.1,0.1-0.1h0.3c0.1,0,0.1,0.1,0.1,0.1v0.6c0.9,0.1,1.2,0.6,1.2,1.1
						c0,0.1-0.1,0.1-0.2,0.1h-0.4c-0.1,0-0.1,0-0.2-0.1c0-0.3-0.2-0.6-0.8-0.6C9.9,2.9,9.6,3,9.6,3.4c0,1,2.4,0.4,2.4,1.9
						C12,6.1,11.4,6.5,10.7,6.5 M4.4,18.7c0,0.1-0.1,0.1-0.1,0.1H0.5c-0.1,0-0.1-0.1-0.1-0.1v-7.8c0-0.1,0.1-0.1,0.1-0.1h3.8
						c0.1,0,0.1,0.1,0.1,0.1V18.7L4.4,18.7z M4.3,10.4H0.5c-0.3,0-0.5,0.2-0.5,0.5v7.8c0,0.1,0,0.2,0.1,0.2c0.1,0.2,0.3,0.3,0.5,0.3
						h3.8c0.3,0,0.5-0.2,0.5-0.5v-7.8C4.8,10.6,4.6,10.4,4.3,10.4z"/>
					<path class="st2" d="M4.8,11.2h8.4c0.5,0,1.2,0.3,1.2,1.2s-0.7,1.3-1.2,1.3h-3.1c-0.2,0-0.4,0.1-0.4,0.4s0.2,0.4,0.4,0.4h3.8
						c2.3-2,3.7-3.2,4.2-3.7c0.7-0.6,1.4-0.1,1.5,0c0.1,0.1,0.8,0.8,0.1,1.7c-0.7,0.9-3.2,4-3.5,4.4s-0.8,0.8-2.2,0.8H5.2L4.8,11.2z
						"/>
					<path class="st3" d="M1.7,9.6h2.2c0.9,0,1.7,0.8,1.7,1.7v6.2c0,0.9-0.8,1.7-1.7,1.7H1.7c-0.9,0-1.7-0.8-1.7-1.7v-6.2
						C0,10.4,0.8,9.6,1.7,9.6z"/>
				</g>
			</g>
		</g>
	</g>
</g>
</svg>
