<?xml version="1.0" encoding="utf-8"?>
<!-- Generator: Adobe Illustrator 25.4.1, SVG Export Plug-In . SVG Version: 6.00 Build 0)  -->
<svg version="1.1" id="Layer_1" xmlns="http://www.w3.org/2000/svg" xmlns:xlink="http://www.w3.org/1999/xlink" x="0px" y="0px"
	 viewBox="0 0 48 48" style="enable-background:new 0 0 48 48;" xml:space="preserve">
<style type="text/css">
	.st0{fill:none;stroke:#EEEEEE;}
	.st1{fill-rule:evenodd;clip-rule:evenodd;fill:#EF7823;}
	.st2{fill-rule:evenodd;clip-rule:evenodd;fill:#ED3D07;}
	.st3{fill-rule:evenodd;clip-rule:evenodd;fill:#FFFFFF;}
	.st4{fill:#ED3D07;}
</style>
<g id="pix">
	<g id="Group-61">
		<path id="Oval-Copy-2" class="st0" d="M24,0.5c6.5,0,12.4,2.6,16.6,6.9s6.9,10.1,6.9,16.6s-2.6,12.4-6.9,16.6S30.5,47.5,24,47.5
			s-12.4-2.6-16.6-6.9S0.5,30.5,0.5,24S3.1,11.6,7.4,7.4S17.5,0.5,24,0.5z"/>
		<g id="icono_dinero_en_cuenta" transform="translate(17.000000, 11.000000)">
			<path id="Rectangle-56" class="st1" d="M4.6,0h4.8C11.9,0,14,2.1,14,4.6v16.8c0,2.6-2.1,4.6-4.6,4.6H4.6C2.1,26,0,23.9,0,21.4
				V4.6C0,2.1,2.1,0,4.6,0z"/>
			<rect id="Rectangle-55" y="5" class="st2" width="14" height="16"/>
			<path id="Rectangle-path" class="st2" d="M5.5,2h3C8.8,2,9,2.2,9,2.5l0,0C9,2.8,8.8,3,8.5,3h-3C5.2,3,5,2.8,5,2.5l0,0
				C5,2.2,5.2,2,5.5,2z"/>
			<circle id="Oval-25" class="st2" cx="7" cy="23" r="1"/>
		</g>
	</g>
	<rect id="Rectangle" x="18" y="17" class="st3" width="12" height="14"/>
	<g id="Group" transform="translate(18.000000, 18.000000)">
		<g id="Icons-_x2F_-03-Pagar-y-Cobrar-_x2F_-QR-Code-_x2F_-24">
			<path id="_xD83C__xDFA8_Icon-color" class="st4" d="M8.2,6.7v1.4h2.2V6.7H11v1.4h-0.7v0.7l0.7,0v0.7l-0.7,0v0.7H11V11h-0.7v-0.7
				H8.2V11H7.4v-0.7h0.7V8.2H7.4V6.7H8.2z M7.4,8.2v1.4l-0.7,0V11H5.3v-0.7H6V9.6l0.7,0l0-1.4H7.4z M4.6,7.4V11H1V7.4H4.6z M3.8,8.2
				H1.7v2.2h2.2V8.2z M6,8.9v0.7H5.3V8.9H6z M9.6,8.9H8.9v0.7h0.7V8.9z M3.1,8.9v0.7H2.4V8.9H3.1z M6,6l0,0.7l0.7,0v0.7L6,7.4l0,0.7
				H5.3V6H6z M9.6,6.7v0.7H8.9V6.7H9.6z M3.1,5.3V6h0.7V5.3h0.7v1.4H2.4V6H1.7V5.3H3.1z M1.7,6v0.7H1V6H1.7z M11,5.3V6l-0.7,0v0.7
				H9.6V6L8.9,6V5.3H11z M6.7,3.8v1.4h1.4V6H6.7V5.3H5.3V4.6H6V3.8H6.7z M4.6,1v3.6H1V1H4.6z M11,1v3.6H7.4V1H11z M6.7,1v0.7H6v0.7
				l0.7,0v0.7L6,3.1v0.7H5.3V1H6.7z M3.8,1.7H1.7v2.2h2.2V1.7z M10.3,1.7H8.2v2.2h2.2V1.7z M3.1,2.4v0.7H2.4V2.4H3.1z M9.6,2.4v0.7
				H8.9V2.4H9.6z"/>
		</g>
	</g>
</g>
</svg>
