<?xml version="1.0" encoding="utf-8"?>
<!-- Generator: Adobe Illustrator 25.4.1, SVG Export Plug-In . SVG Version: 6.00 Build 0)  -->
<svg version="1.1" id="Layer_1" xmlns="http://www.w3.org/2000/svg" xmlns:xlink="http://www.w3.org/1999/xlink" x="0px" y="0px"
	 viewBox="0 0 625 203" style="enable-background:new 0 0 625 203;" xml:space="preserve">
<style type="text/css">
	.st0{fill:#17A338;}
	.st1{fill:#7DB93D;}
	.st2{fill:#F2BF00;}
	.st3{fill:#F19106;}
	.st4{fill:#EA660B;}
	.st5{fill:#DE3281;}
	.st6{fill:#FFFFFF;}
</style>
<g>
	<g>
		<path class="st0" d="M499.2,118.5c-4.5,9.7-4.5,20.4-1,29.7c2.8,7.6,6.2,10,8.6,11.1c1.7,0.8,3.5,1.2,5.2,1.2c3.4,0,6.6-1.3,9-3.8
			c4-4.2,5.2-11.6,0.7-18.3c-7.5-11.3-11.7-22.9-5.7-35.8c0.4-0.8,0.8-1.7,1.3-2.5C509.6,103.9,503.1,110.1,499.2,118.5z"/>
		<path class="st1" d="M511.2,147.5c3.1,11.4,10.6,20.3,20.1,25.8c7.7,4.4,12.3,4,15.1,3.3c2-0.5,3.7-1.5,5.2-2.7
			c2.8-2.4,4.7-5.8,4.9-9.5c0.4-6.4-3.8-13.4-12.3-15.9c-14.4-4.2-26.1-11.1-30.1-26.1c-0.3-1-0.5-2-0.7-3
			C509.6,127.9,508.5,137.7,511.2,147.5z"/>
		<path class="st2" d="M541.8,163.5c10.7,7.4,23.3,9.6,35.2,7.5c9.6-1.7,13.2-5.3,15.1-7.9c1.3-1.9,2.1-3.9,2.5-6
			c0.7-4-0.2-8.2-2.6-11.5c-4.2-5.7-12.7-8.7-21.7-4.7c-15.1,6.6-29.8,9.1-43.8-0.7c-0.9-0.7-1.8-1.3-2.7-2.1
			C526.5,148.1,532.7,157.2,541.8,163.5z"/>
		<path class="st3" d="M578.9,155.4c14.2-1.3,26.4-8.4,34.9-18.6c6.9-8.3,7.4-13.8,7.1-17.3c-0.2-2.5-1-4.8-2.1-6.8
			c-2.2-3.9-5.9-6.8-10.3-7.8c-7.5-1.9-16.8,1.7-21.6,11.3c-8,16.2-18.7,28.7-37.4,30.4c-1.2,0.1-2.5,0.2-3.7,0.2
			C555.1,153.1,566.7,156.4,578.9,155.4z"/>
		<path class="st4" d="M604.4,122.3c11.1-11.1,16.3-25.8,16.3-40.3c0-11.8-3.5-16.8-6.3-19.6c-1.9-1.9-4.2-3.3-6.6-4.2
			c-4.6-1.7-9.8-1.5-14.2,0.7c-7.7,3.8-13,13.3-10.2,24.8c4.7,19.3,4.6,37.4-10.1,52c-1,1-2,1.9-3,2.7
			C582.8,137.2,594.9,131.8,604.4,122.3z"/>
		<path class="st5" d="M605.6,69.5c1.8-20.4-5.3-39.3-17.5-53.8c-9.9-11.8-17.5-13.8-22.6-14.3c-3.6-0.3-7,0.2-10.1,1.3
			c-6,2.2-11,6.7-13.6,12.6c-4.5,10.1-1.8,24.1,10.6,33.2c20.9,15.3,35.8,33.4,33.5,60.2c-0.2,1.8-0.4,3.5-0.7,5.2
			C596.5,102.4,604.1,86.9,605.6,69.5z"/>
	</g>
	<g>
		<path class="st6" d="M45.5,120.3c9.4,0,28.1,3.9,28.1,17.2v8H60v-4.3c0-5.6-8.8-8-14.5-8c-15.3,0-26.7,11.4-26.7,28
			c0,17.8,13,27.8,27.5,27.8c14.7,0,24.3-10.8,24.3-10.8l6.5,10.7c0,0-11.1,13.5-31.8,13.5c-24.6,0-41.7-17.5-41.7-41
			C3.5,138.2,20.3,120.3,45.5,120.3z"/>
		<path class="st6" d="M132.4,151.6h3.4v-0.8c0-13.8-5.1-18.7-17.3-18.7c-3.7,0-12.8,0.9-12.8,6v4.5H91.6V135
			c0-12.8,19.5-14.7,27.1-14.7c25.3,0,32.2,13.3,32.2,30.6v33.2c0,2.3,0,3.4,0,3.4v12.8c0,0-10.6,0-13.8,0c0-2.6,0.1-8.2,0.1-8.2
			h-0.3c0,0-6.2,10.1-24.9,10.1c-13.4,0-26.6-8.2-26.6-23.8C85.2,153.2,119.2,151.6,132.4,151.6z M115.1,190.1
			c12.7,0,20.9-13.3,20.9-24.9v-2.6h-3.9c-11.3,0-31.7,0.6-31.7,15C100.4,184,105.2,190.1,115.1,190.1z"/>
		<path class="st6" d="M252.8,151.6h3.4v-0.8c0-13.8-5.1-18.7-17.3-18.7c-3.7,0-12.8,0.9-12.8,6v4.5H212v-7.7
			c0-12.8,19.5-14.7,27.1-14.7c25.4,0,32.2,13.3,32.2,30.6v33.2c0,2.3,0,3.4,0,3.4v12.8c0,0-10.6,0-13.8,0c0-2.6,0.1-8.2,0.1-8.2
			h-0.3c0,0-6.2,10-24.9,10c-13.5,0-26.6-8.2-26.6-23.8C205.7,153.2,239.7,151.6,252.8,151.6z M235.5,190.1
			c12.7,0,20.9-13.3,20.9-24.9v-2.6h-3.9c-11.3,0-31.7,0.6-31.7,15C220.9,183.9,225.6,190.1,235.5,190.1z"/>
		<path class="st6" d="M162.5,100.5h15V122h18.7v12h-18.7v35.9c0,15.6,10.8,17.6,16.5,17.6c2.2,0,3.6-0.3,3.6-0.3v13.3
			c0,0-2,0.3-5.3,0.3c-9.9,0-29.8-3.1-29.8-29.2v-37.6L162.5,100.5L162.5,100.5z"/>
		<path class="st6" d="M282.9,122.1c0.5,0,14.6,0,14.6,0c0,2.3,0,12.6,0,12.6c3.7-11.4,12.7-13.5,24.7-13.5c2,0,4,0.3,4,0.3v14.8
			c0,0-2-0.5-4.5-0.5c-9.6,0-18.4,6.8-21.9,18.4c-1.4,4.5-1.8,9.3-1.8,14.1v32c0,0-14.9,0-15.1,0
			C282.9,199.8,282.9,122.7,282.9,122.1z"/>
		<path class="st6" d="M338.9,178.4c0,0,9.3,11.6,23.6,11.6c7.3,0,13.6-3.2,13.6-10c0-14.1-42.7-12.5-42.7-37.7
			c0-15,13.1-22,29.1-22c9.4,0,25.7,3.3,25.7,15.2v7.4h-13.5V139c0-4.6-7-6.6-11.7-6.6c-8.8,0-14.5,3.1-14.5,9.3
			c0,14.8,42.7,11.6,42.7,37.7c0,13.9-12.3,22.9-28.8,22.9c-20.9,0-31.2-13.8-31.2-13.8L338.9,178.4z"/>
		<path class="st6" d="M438.7,120.3c21.9,0,33.7,16.4,33.7,36.6c0,2-0.5,6.2-0.5,6.2h-57c0.9,16.7,13,26.1,26.9,26.1
			c13.4,0,22.9-9.1,22.9-9.1l6.5,10.7c0,0-11.6,11.4-30.1,11.4c-24.7,0-41.6-17.8-41.6-41C399.4,136.3,416.4,120.3,438.7,120.3z
			 M456.9,152.1c-0.5-13-8.7-19.9-18.4-19.9c-11.4,0-20.7,7-23,19.9H456.9z"/>
	</g>
</g>
</svg>
