<?xml version="1.0" encoding="utf-8"?>
<!-- Generator: Adobe Illustrator 25.4.1, SVG Export Plug-In . SVG Version: 6.00 Build 0)  -->
<svg version="1.1" id="Layer_3" xmlns="http://www.w3.org/2000/svg" xmlns:xlink="http://www.w3.org/1999/xlink" x="0px" y="0px"
	 viewBox="0 0 100 100" style="enable-background:new 0 0 100 100;" xml:space="preserve">
<style type="text/css">
	.st0{fill:#EEA044;}
</style>
<g>
	<path class="st0" d="M50,0.5C22.7,0.5,0.5,22.7,0.5,50S22.7,99.5,50,99.5S99.5,77.3,99.5,50S77.3,0.5,50,0.5z M80,76.7l3.6,7
		l-7-3.6L70.5,77c-5.7,4.4-12.8,7-20.6,7C31.2,84,16,68.8,16,50.1s15.3-34,34-34S83.9,31.3,83.9,50c0,7.8-2.6,14.9-7,20.7L80,76.7z"
		/>
	<path class="st0" d="M72.2,50c0-12.3-9.9-22.2-22.2-22.2S27.8,37.7,27.8,50S37.7,72.2,50,72.2c4.1,0,7.8-1.1,11.1-3l16.7,8.6
		l-8.6-16.6C71.1,57.9,72.2,54.1,72.2,50z"/>
</g>
</svg>
