<?xml version="1.0" encoding="utf-8"?>
<!-- Generator: Adobe Illustrator 25.4.1, SVG Export Plug-In . SVG Version: 6.00 Build 0)  -->
<svg version="1.1" id="Layer_2" xmlns="http://www.w3.org/2000/svg" xmlns:xlink="http://www.w3.org/1999/xlink" x="0px" y="0px"
	 viewBox="0 0 100 100" style="enable-background:new 0 0 100 100;" xml:space="preserve">
<g>
	<path d="M49.93,0.16C22.41,0.16,0.1,22.47,0.1,49.98c0,27.52,22.31,49.83,49.83,49.83S99.76,77.5,99.76,49.98
		C99.76,22.47,77.45,0.16,49.93,0.16z M77.71,80.75l-7.42-3.97c-5.66,4.31-12.71,6.87-20.37,6.87c-18.59,0-33.66-15.07-33.66-33.66
		c0-18.59,15.07-33.66,33.66-33.66s33.66,15.07,33.66,33.66c0,9.21-3.7,17.55-9.7,23.63L77.71,80.75z"/>
	<path d="M69.28,49.98c0-10.69-8.67-19.35-19.35-19.35S30.57,39.3,30.57,49.98c0,10.69,8.67,19.35,19.35,19.35
		c3.34,0,6.49-0.85,9.23-2.34l12.23,7.28L64.5,62.7C67.47,59.3,69.28,54.86,69.28,49.98z"/>
</g>
</svg>
