<?xml version="1.0" encoding="utf-8"?>
<!-- Generator: Adobe Illustrator 25.4.1, SVG Export Plug-In . SVG Version: 6.00 Build 0)  -->
<svg version="1.1" id="Layer_3" xmlns="http://www.w3.org/2000/svg" xmlns:xlink="http://www.w3.org/1999/xlink" x="0px" y="0px"
	 viewBox="0 0 394.8 100" style="enable-background:new 0 0 394.8 100;" xml:space="preserve">
<style type="text/css">
	.st0{fill:#FFFFFF;}
</style>
<g>
	<path d="M50,0.5C22.7,0.5,0.5,22.7,0.5,50S22.7,99.5,50,99.5S99.5,77.3,99.5,50S77.3,0.5,50,0.5z M80,76.7l3.6,7l-7-3.6L70.5,77
		c-5.7,4.4-12.8,7-20.6,7C31.2,84,16,68.8,16,50.1s15.3-34,34-34S83.9,31.3,83.9,50c0,7.8-2.6,14.9-7,20.7L80,76.7z"/>
	<path d="M72.2,50c0-12.3-9.9-22.2-22.2-22.2S27.8,37.7,27.8,50S37.7,72.2,50,72.2c4.1,0,7.8-1.1,11.1-3l16.7,8.6l-8.6-16.6
		C71.1,57.9,72.2,54.1,72.2,50z"/>
</g>
<g>
	<path d="M200.1,83.3V30.4h-7.8V17.9h28.8v12.6h-7.8v52.9H200.1z"/>
	<path d="M222,83.3l6.4-65.5h22.3l6.3,65.5h-12.5l-0.9-10.6h-7.9l-0.8,10.6H222z M236.6,62.3h6L239.7,29h-0.6L236.6,62.3z"/>
	<path d="M261,83.3V17.9h20.2c3.4,0,5.9,0.8,7.6,2.3s2.9,3.7,3.5,6.4c0.6,2.7,0.9,6,0.9,9.7c0,3.6-0.5,6.4-1.4,8.6
		c-0.9,2.1-2.6,3.6-5.1,4.4c2.1,0.4,3.5,1.4,4.4,3.1s1.3,3.7,1.3,6.3v24.8h-13V57.7c0-1.9-0.4-3.1-1.2-3.6c-0.8-0.5-2.1-0.7-3.8-0.7
		v29.9H261z M274.4,42.1h3.2c1.8,0,2.7-2,2.7-5.9c0-2.6-0.2-4.2-0.6-5c-0.4-0.8-1.1-1.2-2.2-1.2h-3.1V42.1z"/>
	<path d="M311.1,83.9c-9.4,0-14.1-6.7-14.1-20.1V35.6c0-12.2,5.4-18.3,16.2-18.3c4.4,0,7.8,0.9,10.2,2.7c2.4,1.8,4,4.4,4.9,7.8
		c0.9,3.4,1.3,7.5,1.3,12.4h-12.9v-5.8c0-1.4-0.2-2.6-0.6-3.6c-0.4-1-1.2-1.4-2.4-1.4c-1.5,0-2.5,0.5-3,1.5S310,33,310,34.2v31.7
		c0,1.8,0.2,3.2,0.7,4.3c0.5,1.1,1.4,1.7,2.7,1.7c1.4,0,2.3-0.6,2.8-1.7c0.5-1.1,0.7-2.6,0.7-4.4v-9.3h-3.5V45.2h16.1v38.1h-5.3
		l-2.2-5.5C319.7,81.9,316.1,83.9,311.1,83.9z"/>
	<path d="M334.7,83.3V17.9h26.4v12.6h-13v12.8h12.4v12.3h-12.4v15h13.8v12.8H334.7z"/>
	<path d="M371.9,83.3V30.4h-7.8V17.9h28.8v12.6h-7.8v52.9H371.9z"/>
</g>
<path class="st0" d="M115.5,83.3V17.9h13.1v23.4h6.2V17.9h13.1v65.5h-13.1V53.6h-6.2v29.7H115.5z"/>
<path class="st0" d="M182.8,90.3l-10.5-6.8c-1.2,0.3-2.4,0.5-3.7,0.5c-5.1,0-9.1-1.5-11.8-4.5c-2.7-3-4.1-7.4-4.1-13.2V34.5
	c0-5.6,1.4-9.9,4.2-12.8s6.8-4.4,12.1-4.4c5.3,0,9.3,1.5,12.1,4.4s4.2,7.2,4.2,12.8v31.7c0,5.4-1.2,9.7-3.7,12.8l5.7,3.6L182.8,90.3
	z M169.1,71.9c0.9,0,1.6-0.3,2-1c0.4-0.7,0.7-1.5,0.8-2.6s0.2-2,0.2-2.9V34.7c0-1.4-0.2-2.6-0.6-3.7c-0.4-1.1-1.2-1.7-2.5-1.7
	c-1.3,0-2.1,0.5-2.5,1.6s-0.6,2.3-0.6,3.7v30.9c0,0.9,0.1,1.8,0.2,2.8s0.4,1.8,0.8,2.5C167.3,71.5,168,71.9,169.1,71.9z"/>
</svg>
